<?xml version="1.0" encoding="UTF-8"?>
<!DOCTYPE svg PUBLIC "-//W3C//DTD SVG 1.1//EN" "http://www.w3.org/Graphics/SVG/1.1/DTD/svg11.dtd">
<!-- Creator: CorelDRAW 2020 (64-Bit Оценочная версия) -->
<svg xmlns="http://www.w3.org/2000/svg" xml:space="preserve" width="48px" height="22px" version="1.1" style="shape-rendering:geometricPrecision; text-rendering:geometricPrecision; image-rendering:optimizeQuality; fill-rule:evenodd; clip-rule:evenodd"
viewBox="0 0 48 21.99"
 xmlns:xlink="http://www.w3.org/1999/xlink"
 xmlns:xodm="http://www.corel.com/coreldraw/odm/2003">
 <defs>
  <style type="text/css">
   <![CDATA[
    .fil0 {fill:url(#id0);fill-rule:nonzero}
   ]]>
  </style>
  <linearGradient id="id0" gradientUnits="userSpaceOnUse" x1="6.64" y1="15.29" x2="53.23" y2="15.29">
   <stop offset="0" style="stop-opacity:0.686275; stop-color:#8A380F"/>
   <stop offset="1" style="stop-opacity:0.898039; stop-color:#DE6D35"/>
  </linearGradient>
 </defs>
 <g id="Слой_x0020_1">
  <metadata id="CorelCorpID_0Corel-Layer"/>
  <path class="fil0" d="M16.23 16.01c-1.07,2.05 -1.54,3.39 -1.69,4.26 -0.14,0.88 0.03,1.29 0.53,1.46 0.76,0.27 2.24,-1.16 3.18,-0.96 -0.12,-0.55 -0.32,-1.23 -0.32,-1.75 0,-0.88 1.08,-2.25 1.51,-3.01 1.2,-0.08 2.1,0 2.98,0.21 0.93,-1.52 2.13,-2.83 3.5,-3.91 -1.2,-0.73 -2.63,-0.7 -3.97,-0.73l3.15 -3.88c2.19,-2.68 2.39,-3.24 2.39,-4.17 0,-0.32 -0.11,-0.67 -0.49,-0.67 -0.62,0 -1.84,1.63 -2.19,2.1l-5.28 6.62 -4.49 0.53 3.29 -3.5c1.17,-1.26 2.92,-3.01 2.92,-4.82 0,-1.43 -0.73,-2.86 -3.15,-2.86 -2.51,0 -6.18,0.7 -8.6,1.49 -1.67,0.53 -6.54,2.13 -7.59,3.33 -0.52,0.7 -0.99,2.36 -0.99,3.21 0,0.52 0.2,1.34 0.88,1.34 0.4,0 0.81,-0.23 1.16,-0.41 2.02,-1.02 1.81,-1.05 4,-1.81 0.35,-0.12 0.73,-0.29 0.73,-0.7 0,-0.26 -0.21,-0.35 -0.41,-0.44 4.78,-1.98 8.46,-3.06 10,-3.06 0.35,0 1.03,0.12 1.03,0.64 0,0.59 -0.85,1.61 -1.23,2.02 -2.57,2.91 -4.67,5.19 -5.78,6.27 -4.43,0.84 -4.46,1.05 -4.78,1.05 -0.23,0 -0.47,-0.21 -0.67,-0.21 -0.79,0 -1.63,1.55 -1.63,2.22 0,0.99 0.93,1.37 2.97,1.2 -0.41,0.78 -2.48,2.8 -2.48,3.61 0,0.67 0.79,1.26 1.43,1.26 0.7,0 1.34,-1.17 1.69,-1.67l3.04 -3.55 5.36 -0.71zm16.28 -7.4c0.03,-0.67 3.27,-3.39 10.79,-3.65l0.06 0.06c-1.57,1.08 -2.13,1.98 -2.13,2.04 0,0.29 0.18,0.44 0.47,0.44 0.23,0 0.52,-0.18 0.73,-0.29 1.14,-0.82 1.37,-0.97 2.62,-1.43 1.72,-0.67 2.45,-1.17 2.45,-3.33 0,-0.58 -0.08,-0.82 -0.76,-0.96 -1.22,-0.26 -2.45,-0.41 -3.67,-0.41 -6.39,0 -11.67,2.77 -12.57,4.26 -0.47,0.79 -0.94,2.92 -0.94,3.88 0,1.75 1.52,2.22 2.98,2.45 1.4,0.23 9.48,1.4 9.48,2.89 0,0.46 -2.86,3.47 -13.27,3.09l0 -0.06c0.17,-0.17 0.32,-0.32 0.49,-0.44 0.21,-0.11 0.5,-0.26 0.5,-0.55 0,-0.18 -0.09,-0.21 -0.23,-0.21 -0.44,0 -2.16,0.56 -2.51,0.85 -0.47,0.44 -1.49,1.98 -1.49,2.6 0,1.69 3.56,1.69 4.7,1.69 4.2,0 14.38,-0.94 14.38,-6.74 0,-1.43 -1.38,-2.98 -4.32,-3.67 -8.14,-1.9 -7.76,-2.1 -7.76,-2.51z"/>
 </g>
</svg>
